<svg width="65" height="64" viewBox="0 0 65 64" fill="none" xmlns="http://www.w3.org/2000/svg">
<circle cx="32.1875" cy="32" r="32" fill="white"/>
<path d="M13.3871 11.333L16.9031 17.8894L15.7863 18.5719V19.5026L12.1875 22.2896L13.3871 24.3837H14.7935L19.3437 23.4323L21.8256 30.0507V35.127L26.293 43.3496L27.3892 50.6712L26.1275 53.6908H28.4233L29.0231 52.8635V52.0155L29.4367 50.7746L29.6229 39.544L34.5867 40.3713L40.5019 37.2469L43.1906 39.544L44.7832 45.7694V50.6712L43.2526 53.6908H45.5277L45.9207 52.9049L46.81 51.6639L47.7821 42.15L47.1616 38.5305L47.9889 32.3465L47.1616 28.7477L48.5267 29.1407L49.9124 40.3713L51.2154 42.0672L52.1875 41.1158V35.0145L49.809 28.7477L49.0851 28.1686L47.1616 28.7477L41.7221 27.3206L32.7873 28.7477L23.9352 20.1231L19.9434 17.0621L19.0127 16.7725L18.1441 17.0621L13.3871 11.333Z" stroke="#151515" stroke-opacity="0.06" stroke-width="2"/>
</svg>
