<svg width="173" height="25" viewBox="0 0 173 25" fill="none" xmlns="http://www.w3.org/2000/svg">
<path d="M1.608 19.6665H5.712V10.1145L10.464 18.7065L15.216 10.1145V19.6665H19.32V3.1785H15.216L10.464 11.7705L5.712 3.1785H1.608V19.6665ZM30.6977 19.9545C35.5217 19.9545 39.5777 16.0425 39.5777 11.4105C39.5777 6.7785 35.5217 2.8905 30.6977 2.8905C25.8977 2.8905 21.8417 6.7785 21.8417 11.4105C21.8417 16.0425 25.8977 19.9545 30.6977 19.9545ZM30.6977 16.2345C28.1777 16.2345 26.0417 14.0265 26.0417 11.4105C26.0417 8.8185 28.1777 6.6105 30.6977 6.6105C33.2177 6.6105 35.3537 8.8185 35.3537 11.4105C35.3537 14.0265 33.2177 16.2345 30.6977 16.2345ZM42.0611 19.6665H46.1651V9.9225L53.3411 19.6665H57.4451V3.1785H53.3411V12.9225L46.1651 3.1785H42.0611V19.6665ZM68.8305 19.9545C73.6545 19.9545 77.7105 16.0425 77.7105 11.4105C77.7105 6.7785 73.6545 2.8905 68.8305 2.8905C64.0305 2.8905 59.9745 6.7785 59.9745 11.4105C59.9745 16.0425 64.0305 19.9545 68.8305 19.9545ZM68.8305 16.2345C66.3105 16.2345 64.1745 14.0265 64.1745 11.4105C64.1745 8.8185 66.3105 6.6105 68.8305 6.6105C71.3505 6.6105 73.4865 8.8185 73.4865 11.4105C73.4865 14.0265 71.3505 16.2345 68.8305 16.2345ZM88.3539 19.9545C90.9219 19.9545 93.2739 18.8505 94.9059 17.0985L91.9299 14.4585C91.0419 15.5385 89.7699 16.2345 88.3539 16.2345C85.8339 16.2345 83.6979 14.0265 83.6979 11.4105C83.6979 8.8185 85.8339 6.6105 88.3539 6.6105C89.7459 6.6105 91.0419 7.3065 91.9059 8.3865L94.9059 5.7225C93.2739 3.9945 90.9219 2.8905 88.3539 2.8905C83.5539 2.8905 79.4979 6.7785 79.4979 11.4105C79.4979 16.0425 83.5539 19.9545 88.3539 19.9545ZM109.934 6.8505V3.1785H96.9501V19.6665H109.934V15.9945H101.054V13.0905H109.118V9.4185H101.054V6.8505H109.934ZM126.866 19.6665L122.882 14.0025C125.018 13.1385 126.386 11.2425 126.386 8.8425C126.386 5.5065 123.746 3.1785 120.122 3.1785H112.466V19.6665H116.57V14.5065H118.586L122.21 19.6665H126.866ZM116.57 6.9225H119.738C121.154 6.9225 122.162 7.6905 122.162 8.8425C122.162 9.9945 121.154 10.7625 119.738 10.7625H116.57V6.9225ZM137.221 19.9545C142.045 19.9545 146.101 16.0425 146.101 11.4105C146.101 6.7785 142.045 2.8905 137.221 2.8905C132.421 2.8905 128.365 6.7785 128.365 11.4105C128.365 16.0425 132.421 19.9545 137.221 19.9545ZM137.221 16.2345C134.701 16.2345 132.565 14.0265 132.565 11.4105C132.565 8.8185 134.701 6.6105 137.221 6.6105C139.741 6.6105 141.877 8.8185 141.877 11.4105C141.877 14.0265 139.741 16.2345 137.221 16.2345ZM154.945 19.9545C159.025 19.9545 161.545 17.8905 161.545 14.5785C161.545 11.4825 159.169 10.4265 155.473 9.6345C153.025 9.1065 152.233 8.7705 152.233 7.7625C152.233 6.9465 152.977 6.3225 154.297 6.3225C155.833 6.3225 157.489 6.9225 159.001 8.0745L161.089 5.1465C159.337 3.6825 157.177 2.8905 154.417 2.8905C150.649 2.8905 148.105 5.0025 148.105 8.1705C148.105 11.4825 150.721 12.4425 154.249 13.2345C156.649 13.8105 157.417 14.0265 157.417 15.0105C157.417 15.8985 156.625 16.5225 155.089 16.5225C153.073 16.5225 151.273 15.7545 149.665 14.4345L147.361 17.1945C149.353 18.9945 152.017 19.9545 154.945 19.9545Z" fill="#151515"/>
<path d="M168.072 19.6665C169.667 19.6665 171 18.2976 171 16.6083C171 15.0354 169.667 13.6665 168.072 13.6665C166.333 13.6665 165 15.0354 165 16.6083C165 18.2976 166.333 19.6665 168.072 19.6665Z" fill="#BCDCC4"/>
</svg>
